<svg width="32" height="32" viewBox="0 0 32 32" fill="none" xmlns="http://www.w3.org/2000/svg">
<rect x="0.333333" y="4.9067" width="31.3333" height="22.1905" rx="2.33333" fill="white" stroke="#F5F5F5" stroke-width="0.666667"/>
<mask id="mask0_2863_70976" style="mask-type:luminance" maskUnits="userSpaceOnUse" x="0" y="4" width="32" height="24">
<rect x="0.333333" y="4.9067" width="31.3333" height="22.1905" rx="2.33333" fill="white" stroke="white" stroke-width="0.666667"/>
</mask>
<g mask="url(#mask0_2863_70976)">
<path fill-rule="evenodd" clip-rule="evenodd" d="M0 12.1924H32V4.57336H0V12.1924Z" fill="#04AAC8"/>
<path fill-rule="evenodd" clip-rule="evenodd" d="M0 27.4304H32V19.8114H0V27.4304Z" fill="#23C840"/>
<path d="M5.33398 6.09717C5.80468 6.09725 6.24193 6.23991 6.60547 6.48389C6.56293 6.48105 6.51982 6.47803 6.47656 6.47803C5.42489 6.47819 4.57252 7.33067 4.57227 8.38232C4.57227 9.43419 5.42473 10.2874 6.47656 10.2876C6.51984 10.2876 6.56291 10.2836 6.60547 10.2808C6.24183 10.5249 5.8049 10.6684 5.33398 10.6685C4.07176 10.6685 3.04808 9.64547 3.04785 8.3833C3.04785 7.12094 4.07162 6.09717 5.33398 6.09717Z" fill="white"/>
</g>
<path d="M9.99967 6.66663L10.1494 7.12728H10.6337L10.2419 7.41198L10.3915 7.87264L9.99967 7.58794L9.60782 7.87264L9.75749 7.41198L9.36564 7.12728H9.85L9.99967 6.66663Z" fill="white"/>
<path d="M9.99967 8L10.1494 8.46066H10.6337L10.2419 8.74536L10.3915 9.20601L9.99967 8.92131L9.60782 9.20601L9.75749 8.74536L9.36564 8.46066H9.85L9.99967 8Z" fill="white"/>
<path d="M9.99967 9.33337L10.1494 9.79403H10.6337L10.2419 10.0787L10.3915 10.5394L9.99967 10.2547L9.60782 10.5394L9.75749 10.0787L9.36564 9.79403H9.85L9.99967 9.33337Z" fill="white"/>
<path d="M8.66667 8L8.81634 8.46066H9.3007L8.90885 8.74536L9.05852 9.20601L8.66667 8.92131L8.27481 9.20601L8.42449 8.74536L8.03263 8.46066H8.51699L8.66667 8Z" fill="white"/>
<path d="M8.66667 9.33337L8.81634 9.79403H9.3007L8.90885 10.0787L9.05852 10.5394L8.66667 10.2547L8.27481 10.5394L8.42449 10.0787L8.03263 9.79403H8.51699L8.66667 9.33337Z" fill="white"/>
<path d="M7.33366 9.33337L7.48333 9.79403H7.9677L7.57584 10.0787L7.72552 10.5394L7.33366 10.2547L6.9418 10.5394L7.09148 10.0787L6.69962 9.79403H7.18398L7.33366 9.33337Z" fill="white"/>
<path d="M11.3337 6.66663L11.4833 7.12728H11.9677L11.5758 7.41198L11.7255 7.87264L11.3337 7.58794L10.9418 7.87264L11.0915 7.41198L10.6996 7.12728H11.184L11.3337 6.66663Z" fill="white"/>
<path d="M11.3337 8L11.4833 8.46066H11.9677L11.5758 8.74536L11.7255 9.20601L11.3337 8.92131L10.9418 9.20601L11.0915 8.74536L10.6996 8.46066H11.184L11.3337 8Z" fill="white"/>
<path d="M11.3337 9.33337L11.4833 9.79403H11.9677L11.5758 10.0787L11.7255 10.5394L11.3337 10.2547L10.9418 10.5394L11.0915 10.0787L10.6996 9.79403H11.184L11.3337 9.33337Z" fill="white"/>
<path d="M12.6667 6.66663L12.8163 7.12728H13.3007L12.9088 7.41198L13.0585 7.87264L12.6667 7.58794L12.2748 7.87264L12.4245 7.41198L12.0326 7.12728H12.517L12.6667 6.66663Z" fill="white"/>
<path d="M12.6667 8L12.8163 8.46066H13.3007L12.9088 8.74536L13.0585 9.20601L12.6667 8.92131L12.2748 9.20601L12.4245 8.74536L12.0326 8.46066H12.517L12.6667 8Z" fill="white"/>
<path d="M12.6667 9.33337L12.8163 9.79403H13.3007L12.9088 10.0787L13.0585 10.5394L12.6667 10.2547L12.2748 10.5394L12.4245 10.0787L12.0326 9.79403H12.517L12.6667 9.33337Z" fill="white"/>
</svg>
