<svg width="21" height="20" viewBox="0 0 21 20" fill="none" xmlns="http://www.w3.org/2000/svg">
<path d="M4.22494 17.5H16.7749C18.0583 17.5 18.8583 16.1083 18.2166 15L11.9416 4.15832C11.2999 3.04999 9.69994 3.04999 9.05827 4.15832L2.78327 15C2.1416 16.1083 2.9416 17.5 4.22494 17.5ZM10.4999 11.6667C10.0416 11.6667 9.6666 11.2917 9.6666 10.8333V9.16666C9.6666 8.70832 10.0416 8.33332 10.4999 8.33332C10.9583 8.33332 11.3333 8.70832 11.3333 9.16666V10.8333C11.3333 11.2917 10.9583 11.6667 10.4999 11.6667ZM11.3333 15H9.6666V13.3333H11.3333V15Z" fill="#F55555"/>
</svg>
