<svg width="20" height="21" viewBox="0 0 20 21" fill="none" xmlns="http://www.w3.org/2000/svg">
<path d="M9.98698 2.16669C12.5443 2.16669 14.6022 4.17941 14.6022 6.66376V7.9411C16.0374 8.38907 17.0835 9.68823 17.0837 11.2399V15.3542C17.0837 17.2754 15.4906 18.8336 13.527 18.8337H6.47429C4.50975 18.8337 2.91667 17.2754 2.91667 15.3542V11.2399C2.91686 9.68823 3.9638 8.38907 5.39811 7.9411V6.66376C5.40658 4.17951 7.46372 2.16686 9.98698 2.16669ZM9.99577 11.654C9.58944 11.654 9.25965 11.9764 9.25944 12.3737V14.2126C9.25949 14.6183 9.58934 14.9411 9.99577 14.9411C10.4107 14.9411 10.7408 14.6183 10.7409 14.2126V12.3737C10.7407 11.9764 10.4106 11.654 9.99577 11.654ZM10.0046 3.61591C8.28559 3.61591 6.88803 4.97436 6.87956 6.64716V7.76141H13.1208V6.66376C13.1208 4.98278 11.7234 3.61607 10.0046 3.61591Z" fill="#888888"/>
</svg>
