<svg width="32" height="32" viewBox="0 0 32 32" fill="none" xmlns="http://www.w3.org/2000/svg">
<path fill-rule="evenodd" clip-rule="evenodd" d="M7.875 14.375V11.125C7.875 6.63769 11.5127 3 16 3C20.4873 3 24.125 6.63769 24.125 11.125V14.375C25.9199 14.375 27.375 15.8301 27.375 17.625V25.75C27.375 27.5449 25.9199 29 24.125 29H7.875C6.08007 29 4.625 27.5449 4.625 25.75V17.625C4.625 15.8301 6.08007 14.375 7.875 14.375ZM20.875 11.125V14.375H11.125V11.125C11.125 8.43261 13.3076 6.25 16 6.25C18.6924 6.25 20.875 8.43261 20.875 11.125Z" fill="#6172F3"/>
</svg>
