<svg width="25" height="25" viewBox="0 0 25 25" fill="none" xmlns="http://www.w3.org/2000/svg">
<g clip-path="url(#clip0_760_13859)">
<path d="M12.5 0.5C9.31812 0.5 6.26375 1.76506 4.01562 4.01469C1.7652 6.26522 0.500644 9.31734 0.5 12.5C0.5 15.6813 1.76562 18.7357 4.01562 20.9853C6.26375 23.2349 9.31812 24.5 12.5 24.5C15.6819 24.5 18.7362 23.2349 20.9844 20.9853C23.2344 18.7357 24.5 15.6813 24.5 12.5C24.5 9.31869 23.2344 6.26431 20.9844 4.01469C18.7362 1.76506 15.6819 0.5 12.5 0.5Z" fill="url(#paint0_linear_760_13859)"/>
<path d="M5.93233 12.3733C9.43108 10.8493 11.7636 9.84454 12.9298 9.35904C16.2636 7.97285 16.9555 7.7321 17.4073 7.72395C17.5067 7.72235 17.728 7.74692 17.8723 7.86364C17.9923 7.96207 18.0261 8.0952 18.043 8.18867C18.058 8.28204 18.0786 8.49485 18.0617 8.66098C17.8817 10.5585 17.0998 15.1631 16.7023 17.2884C16.5355 18.1877 16.2036 18.4892 15.883 18.5186C15.1855 18.5827 14.6567 18.0581 13.9817 17.6158C12.9261 16.9234 12.3298 16.4925 11.3042 15.8169C10.1192 15.0362 10.888 14.607 11.563 13.9057C11.7392 13.7222 14.8105 10.9294 14.8686 10.676C14.8761 10.6444 14.8836 10.5262 14.8123 10.464C14.743 10.4015 14.6398 10.4229 14.5648 10.4398C14.458 10.4638 12.7723 11.579 9.50233 13.7854C9.02421 14.1142 8.59108 14.2745 8.20108 14.2661C7.77358 14.2569 6.94858 14.0239 6.33546 13.8247C5.58546 13.5804 4.98733 13.4512 5.03983 13.0363C5.06608 12.8203 5.36421 12.5992 5.93233 12.3733Z" fill="white"/>
</g>
<defs>
<linearGradient id="paint0_linear_760_13859" x1="1200.5" y1="0.5" x2="1200.5" y2="2400.5" gradientUnits="userSpaceOnUse">
<stop stop-color="#2AABEE"/>
<stop offset="1" stop-color="#229ED9"/>
</linearGradient>
<clipPath id="clip0_760_13859">
<rect width="24" height="24" fill="white" transform="translate(0.5 0.5)"/>
</clipPath>
</defs>
</svg>
