<svg width="36" height="36" viewBox="0 0 36 36" fill="none" xmlns="http://www.w3.org/2000/svg">
<rect width="36" height="36" rx="18" fill="#EEF4FF"/>
<path d="M20.4997 22.1667H24.6663L23.4956 20.9959C23.1781 20.6784 22.9997 20.2477 22.9997 19.7987V17.1667C22.9997 14.9896 21.6083 13.1376 19.6663 12.4512V12.1667C19.6663 11.2462 18.9201 10.5 17.9997 10.5C17.0792 10.5 16.333 11.2462 16.333 12.1667V12.4512C14.391 13.1376 12.9997 14.9896 12.9997 17.1667V19.7987C12.9997 20.2477 12.8213 20.6784 12.5038 20.9959L11.333 22.1667H15.4997M20.4997 22.1667V23C20.4997 24.3807 19.3804 25.5 17.9997 25.5C16.619 25.5 15.4997 24.3807 15.4997 23V22.1667M20.4997 22.1667H15.4997" stroke="#6172F3" stroke-width="1.66667" stroke-linecap="round" stroke-linejoin="round"/>
</svg>
