<svg width="20" height="21" viewBox="0 0 20 21" fill="none" xmlns="http://www.w3.org/2000/svg">
<path d="M12.1083 8.61923L7.89166 12.8359C7.35 12.2942 7.01666 11.5526 7.01666 10.7276C7.01666 9.07757 8.35 7.74423 10 7.74423C10.825 7.74423 11.5667 8.07757 12.1083 8.61923Z" stroke="#888888" stroke-width="1.5" stroke-linecap="round" stroke-linejoin="round"/>
<path d="M14.85 5.53591C13.3917 4.43591 11.725 3.83591 9.99999 3.83591C7.05832 3.83591 4.31666 5.56924 2.40833 8.56924C1.65833 9.74424 1.65833 11.7192 2.40833 12.8942C3.06666 13.9276 3.83332 14.8192 4.66666 15.5359" stroke="#888888" stroke-width="1.5" stroke-linecap="round" stroke-linejoin="round"/>
<path d="M7.01666 17.0026C7.96666 17.4026 8.975 17.6192 10 17.6192C12.9417 17.6192 15.6833 15.8859 17.5917 12.8859C18.3417 11.7109 18.3417 9.73591 17.5917 8.56091C17.3167 8.12757 17.0167 7.71924 16.7083 7.33591" stroke="#888888" stroke-width="1.5" stroke-linecap="round" stroke-linejoin="round"/>
<path d="M12.925 11.3109C12.7083 12.4859 11.75 13.4442 10.575 13.6609" stroke="#888888" stroke-width="1.5" stroke-linecap="round" stroke-linejoin="round"/>
<path d="M7.89169 12.8359L1.66669 19.0609" stroke="#888888" stroke-width="1.5" stroke-linecap="round" stroke-linejoin="round"/>
<path d="M18.3333 2.39423L12.1083 8.61923" stroke="#888888" stroke-width="1.5" stroke-linecap="round" stroke-linejoin="round"/>
</svg>
